<svg viewBox="0 0 120 195" xmlns="http://www.w3.org/2000/svg" fill="none" stroke="#7FA87C" stroke-width="2.5" stroke-linecap="round" stroke-linejoin="round">
  <!-- head -->
  <circle cx="60" cy="18" r="10" stroke="#7FA87C"/>
  <!-- neck -->
  <line x1="60" y1="28" x2="60" y2="40"/>
  <!-- shoulders -->
  <line x1="36" y1="48" x2="84" y2="48"/>
  <line x1="60" y1="40" x2="60" y2="48"/>
  <!-- left arm (down at side) -->
  <line x1="36" y1="48" x2="32" y2="76"/>
  <line x1="32" y1="76" x2="30" y2="98"/>
  <!-- right arm -->
  <line x1="84" y1="48" x2="88" y2="76"/>
  <line x1="88" y1="76" x2="90" y2="98"/>
  <!-- spine -->
  <line x1="60" y1="48" x2="60" y2="108"/>
  <!-- hips -->
  <line x1="45" y1="108" x2="75" y2="108"/>
  <!-- left leg -->
  <line x1="45" y1="108" x2="45" y2="152"/>
  <line x1="45" y1="152" x2="44" y2="180"/>
  <!-- right leg -->
  <line x1="75" y1="108" x2="75" y2="152"/>
  <line x1="75" y1="152" x2="76" y2="180"/>
  <!-- feet -->
  <line x1="44" y1="180" x2="32" y2="180"/>
  <line x1="76" y1="180" x2="88" y2="180"/>
  <!-- joint dots -->
  <circle cx="36" cy="48" r="3" fill="#7FA87C" stroke="none"/>
  <circle cx="84" cy="48" r="3" fill="#7FA87C" stroke="none"/>
  <circle cx="32" cy="76" r="3" fill="#7FA87C" stroke="none"/>
  <circle cx="88" cy="76" r="3" fill="#7FA87C" stroke="none"/>
  <circle cx="45" cy="108" r="3" fill="#7FA87C" stroke="none"/>
  <circle cx="75" cy="108" r="3" fill="#7FA87C" stroke="none"/>
  <circle cx="45" cy="152" r="3" fill="#7FA87C" stroke="none"/>
  <circle cx="75" cy="152" r="3" fill="#7FA87C" stroke="none"/>
</svg>
